<svg id="Calque_1" data-name="Calque 1" xmlns="http://www.w3.org/2000/svg" viewBox="0 0 1586.34 2154.32"><title>Allemagne</title><polygon points="1279.42 2104.93 1226.5 2064.95 1153.59 2042.6 956.04 2139.03 877.25 2091.99 798.46 2094.34 789.05 2154.32 700.86 2087.29 645.59 2119.04 468.02 2040.25 433.92 2082.58 269.29 2072 248.12 1996.74 277.52 1956.76 270.46 1888.56 326.91 1813.3 326.91 1775.66 389.24 1699.23 261.06 1632.2 171.69 1642.78 48.21 1499.32 83.49 1429.94 37.63 1347.62 76.44 1268.84 44.69 1241.79 44.69 1211.21 0 1168.88 28.22 1152.42 12.94 1085.39 44.69 1063.05 64.68 974.85 41.16 884.3 172.86 845.5 179.92 806.69 222.25 753.78 184.62 677.34 225.78 655 266.94 496.25 298.69 495.07 250.47 439.8 277.52 392.76 346.9 373.95 408.05 388.06 413.93 448.03 437.45 459.79 455.09 435.1 442.15 411.58 453.91 398.64 492.72 423.34 485.66 455.09 511.53 425.69 477.43 372.77 513.88 317.5 535.05 339.85 604.43 348.08 653.82 419.81 676.16 425.69 702.03 453.91 717.32 453.91 705.56 424.51 671.46 406.87 631.48 341.02 573.86 329.26 540.93 286.93 573.86 258.71 545.63 250.47 539.75 222.25 553.87 209.32 523.29 215.2 500.95 195.21 547.99 170.51 537.4 107.01 502.13 61.15 476.25 64.68 469.2 82.32 452.74 71.73 468.02 45.86 463.32 18.82 484.49 0 504.48 0 492.72 37.63 513.88 37.63 517.41 22.34 664.4 51.74 686.75 79.96 717.32 87.02 717.32 107.01 670.28 137.59 670.28 151.7 696.15 155.22 730.26 135.23 712.62 162.28 718.5 177.57 754.95 172.86 738.49 229.31 762.01 228.13 777.29 184.62 821.98 206.97 912.53 199.91 852.55 277.52 871.37 324.56 927.81 295.16 968.97 299.86 953.68 272.82 940.75 286.93 970.15 319.86 984.26 297.51 978.38 257.53 1060.69 252.83 1085.39 262.23 1068.93 231.66 1120.67 164.63 1193.58 170.51 1180.64 185.8 1199.46 203.44 1207.69 181.09 1275.89 215.2 1306.47 192.85 1329.98 210.49 1333.51 170.51 1299.41 165.81 1328.81 137.59 1267.66 98.78 1215.92 136.41 1221.8 165.81 1254.72 125.83 1275.89 130.53 1225.33 204.61 1291.18 248.12 1341.74 246.95 1361.73 304.57 1387.61 304.57 1365.26 264.59 1421.71 298.69 1420.53 325.74 1373.49 332.79 1404.07 342.2 1446.4 485.66 1433.47 558.57 1395.84 622.07 1478.15 679.69 1476.98 752.6 1508.73 853.73 1500.49 907.82 1527.54 985.43 1564 1001.9 1586.34 1055.99 1546.36 1150.07 1516.96 1140.66 1511.08 1119.49 1448.75 1121.84 1442.88 1139.48 1455.81 1157.12 1402.89 1171.23 1380.55 1205.34 1347.62 1210.04 1252.37 1274.72 1112.44 1334.69 1101.85 1319.4 1090.09 1348.8 1117.14 1417 1152.42 1439.35 1175.94 1544.01 1241.79 1618.09 1266.48 1623.97 1287.65 1659.25 1331.16 1686.29 1339.39 1713.34 1406.42 1755.67 1411.12 1806.24 1381.73 1815.65 1346.45 1807.41 1331.16 1849.75 1239.44 1920.31 1233.56 1948.53 1250.02 1977.93 1257.08 2015.56 1252.37 2046.13 1284.12 2052.01 1293.53 2081.41 1279.42 2104.93"/></svg>