<svg id="Calque_1" data-name="Calque 1" xmlns="http://www.w3.org/2000/svg" viewBox="0 0 1217.32 2134.68"><title>Angleterre</title><polygon points="151.5 2116.29 150.11 2088.47 196.01 2080.13 328.14 1952.17 333.7 1890.97 362.91 1910.44 393.5 1889.58 371.25 1881.24 396.29 1854.81 550.67 1867.33 550.67 1828.39 603.52 1793.62 641.07 1735.2 589.61 1785.27 554.84 1782.49 529.81 1817.26 472.78 1815.87 449.14 1799.18 444.97 1771.36 418.54 1763.02 422.71 1782.49 366.89 1773.77 404.95 1754.09 362.51 1747.52 371.26 1722.59 358.58 1716.46 355.95 1735.27 317.45 1733.96 308.27 1756.27 272.83 1762.4 261.46 1746.21 293.39 1738.77 285.08 1717.34 277.64 1737.46 254.9 1736.59 247.9 1742.27 240.46 1726.09 259.71 1723.9 257.52 1703.34 226.02 1698.09 262.77 1680.59 267.58 1661.78 287.71 1669.22 328.39 1639.91 384.39 1620.66 412.38 1557.66 430.76 1547.6 408.01 1551.1 404.07 1532.29 433.38 1502.11 412.82 1511.73 402.76 1473.67 418.07 1462.73 399.7 1468.86 380.89 1461.86 353.33 1479.36 354.2 1498.61 340.64 1481.11 314.39 1501.23 316.58 1480.23 337.58 1460.98 356.39 1460.11 378.26 1421.61 400.57 1397.99 365.57 1418.11 375.2 1404.11 365.14 1408.05 351.14 1386.18 341.08 1387.05 330.58 1368.24 345.01 1379.62 346.76 1352.93 388.32 1352.05 385.7 1364.3 393.13 1364.74 392.7 1378.74 423.76 1374.37 406.26 1393.18 443.01 1385.74 446.94 1396.68 453.94 1389.24 442.57 1378.3 446.94 1366.05 462.25 1379.62 489.81 1380.93 520 1366.93 523.94 1377.43 544.94 1394.49 549.75 1382.24 534.87 1362.55 558.06 1350.3 574.68 1380.93 602.24 1379.62 576.87 1373.05 561.12 1345.06 545.81 1333.68 574.25 1287.31 588.25 1283.81 556.75 1281.62 554.12 1236.56 570.75 1257.56 564.18 1237.44 583.87 1234.38 588.68 1212.5 575.12 1219.94 595.24 1195.88 584.31 1180.57 596.99 1174.01 586.5 1165.69 570.31 1189.76 561.56 1167.01 544.06 1202 524.81 1191.94 542.31 1174.44 535.75 1157.38 528.31 1177.94 506.88 1137.26 478.44 1108.39 488.06 1075.14 510.38 1048.02 516.94 1014.77 530.94 1021.77 534 1002.96 555.87 1001.64 526.13 994.64 502.06 999.89 489.81 986.77 495.06 1017.83 463.13 1024.39 460.07 1011.27 452.63 1034.89 429.88 1044.08 425.07 1027.89 420.26 1045.39 404.95 1032.27 410.2 1018.27 397.95 1025.27 382.2 1006.46 374.76 1018.71 388.32 1030.08 389.2 1062.45 358.58 1048.89 322.7 1012.58 307.39 1029.2 318.77 1069.45 306.95 1063.77 276.33 999.02 288.58 980.65 299.95 1002.96 294.27 969.71 326.2 935.59 340.64 886.59 352.89 886.59 352.89 855.09 318.77 811.35 332.33 768.04 374.76 776.79 328.83 725.17 333.64 759.29 317.89 761.48 322.7 769.35 314.39 790.35 304.33 760.6 303.89 782.48 290.33 758.85 289.89 782.48 309.14 796.04 308.27 821.85 284.21 779.41 284.21 794.72 264.96 768.48 325.77 697.61 268.46 752.29 255.33 741.79 269.33 807.41 251.83 817.47 239.59 879.15 229.96 885.28 242.21 900.15 204.59 915.9 214.21 845.03 257.08 789.47 234.77 804.35 222.96 791.22 242.21 771.1 222.52 776.79 240.46 748.35 224.27 752.73 234.34 736.54 250.96 736.1 241.77 727.79 257.52 708.11 240.02 718.17 256.21 691.04 237.4 695.86 235.65 711.61 222.96 717.73 215.96 752.73 189.71 796.47 171.34 790.35 180.53 814.41 165.65 834.53 145.09 846.78 137.22 830.6 148.16 824.03 138.97 809.16 150.78 799.54 135.03 799.1 131.09 816.6 118.41 824.03 121.91 784.23 145.97 770.66 141.59 787.72 166.97 764.54 168.72 785.1 176.59 762.35 202.4 757.54 185.78 755.35 219.9 720.79 219.9 706.79 233.46 696.73 236.09 677.92 261.02 673.98 244.4 666.55 267.58 651.24 295.14 659.55 309.14 631.99 293.39 650.8 261.46 643.8 261.9 629.8 293.39 629.36 268.46 623.67 287.27 603.99 327.95 594.8 292.96 593.49 422.01 430.31 241.34 638.11 224.27 624.99 221.21 632.86 192.34 601.8 212.46 608.8 224.71 598.3 254.9 595.24 170.03 592.18 175.72 574.68 212.46 584.74 215.96 576.43 239.15 580.37 264.08 558.93 236.09 575.12 207.65 568.55 236.52 557.18 211.59 550.62 222.96 519.56 243.52 532.25 260.58 525.25 242.65 525.25 224.71 512.56 247.02 496.37 257.08 509.93 275.89 500.75 260.15 499.44 241.34 488.5 251.4 468.81 277.21 475.81 268.02 464.44 273.71 449.56 260.15 459.63 213.78 464.44 212.9 453.06 198.9 447.38 195.4 421.13 212.03 391.38 200.21 459.63 184.9 443.44 190.15 433.81 182.28 429.88 189.71 422 187.53 377.38 169.59 355.07 154.28 374.32 166.97 415 154.28 406.25 147.72 411.94 135.03 374.76 127.59 381.76 139.41 402.75 132.84 402.75 131.53 414.57 119.28 397.94 107.03 421.13 132.84 442.56 133.72 426.38 145.09 437.75 156.03 435.13 169.59 452.63 146.41 442.56 145.53 457.88 159.53 468.38 157.34 477.12 187.09 479.75 195.84 490.25 198.03 468.81 205.46 480.19 221.21 483.25 223.4 495.5 201.09 520 195.84 499.44 220.34 479.31 233.9 483.25 243.96 466.63 236.52 455.69 267.58 443.44 275.89 426.38 252.27 442.56 252.71 424.19 229.96 446.94 228.65 386.13 247.02 415.88 251.4 404.5 269.33 401.88 248.34 399.25 230.4 372.57 249.21 366.01 228.21 355.95 229.96 324.89 250.08 327.51 254.02 352.01 261.9 333.2 254.02 323.14 260.58 313.07 276.33 332.76 285.96 311.32 287.71 326.2 304.33 334.51 294.71 322.7 314.83 325.76 324.02 341.51 323.14 326.2 283.77 276.33 301.7 283.33 288.58 240.02 313.08 238.71 345.01 249.21 324.45 235.21 319.2 204.15 332.33 214.65 327.95 199.33 339.76 202.83 321.39 181.4 344.58 158.21 360.76 164.77 360.76 182.71 366.01 166.09 378.7 177.9 364.26 200.65 385.7 182.71 386.14 166.96 409.76 178.77 401.88 198.02 421.57 174.4 426.82 182.71 460.94 168.27 492.44 177.02 496.38 166.09 535.31 170.9 532.25 151.21 544.5 160.4 568.56 149.9 567.68 159.09 577.31 164.34 559.81 194.08 574.25 197.15 552.37 236.52 456.57 316.57 438.63 315.7 457 327.51 447.82 335.38 418.07 330.14 401.88 319.2 418.51 335.82 457.44 341.95 467.5 346.76 484.57 332.76 454.38 376.07 449.57 357.7 436.88 370.82 416.76 374.76 404.07 395.75 419.38 378.26 437.76 382.63 450.88 378.69 433.82 404.5 421.57 405.82 429.01 409.32 398.38 419.38 421.57 422 451.76 396.19 471.88 398.82 493.75 380.88 506.44 386.13 527.44 371.26 573.37 385.26 587.81 373.44 649.05 383.94 658.68 374.32 669.61 382.63 683.61 375.63 713.36 389.63 727.36 429.88 696.3 467.5 690.17 516.93 670.93 545.37 670.49 570.74 648.62 599.18 633.74 605.3 646.87 612.3 634.62 619.74 641.18 628.05 611.87 646.86 610.12 659.11 589.56 653.42 537.94 680.98 598.31 661.3 596.99 674.42 583 680.98 624.55 699.79 591.75 722.1 578.18 712.48 552.81 737.85 552.81 751.41 538.37 748.79 528.31 758.41 496.81 747.04 485.44 753.16 466.19 736.98 482.82 762.35 495.94 758.41 545.81 767.16 567.25 775.91 584.75 756.66 609.68 746.16 623.68 755.79 623.68 764.98 638.12 764.1 648.18 780.73 678.36 781.6 712.49 843.72 728.67 840.22 727.8 850.28 750.98 867.34 748.36 915.03 756.67 918.96 750.11 936.9 766.73 950.9 762.79 964.46 785.54 1003.83 792.98 1055.89 809.16 1059.83 807.85 1074.26 892.28 1110.57 918.97 1165.26 960.09 1191.51 938.65 1203.32 994.65 1305.68 973.21 1299.12 962.72 1304.37 929.9 1278.56 900.16 1288.62 882.66 1280.75 901.91 1295.62 928.59 1286 990.27 1334.56 1021.77 1398.43 1019.59 1429.05 976.71 1466.23 999.02 1471.48 1016.09 1491.61 1038.4 1482.86 1037.08 1465.8 1048.9 1450.92 1155.2 1452.67 1214.69 1499.04 1216.44 1523.1 1205.95 1531.85 1216.88 1530.54 1217.32 1591.79 1207.7 1600.1 1203.76 1653.9 1181.88 1669.22 1165.7 1649.53 1177.07 1672.28 1172.26 1681.46 1141.64 1660.47 1159.57 1677.53 1131.14 1684.09 1158.26 1684.53 1150.39 1698.53 1164.82 1701.59 1135.51 1726.96 1116.7 1699.4 1123.27 1719.09 1081.27 1734.84 1093.95 1740.09 1116.27 1730.9 1120.64 1757.58 1079.52 1755.84 1118.45 1763.27 1097.89 1782.08 1066.83 1775.52 1046.27 1794.33 1012.59 1783.83 961.4 1788.21 1008.65 1790.83 1037.96 1801.33 1058.08 1793.02 1089.58 1797.83 1059.83 1809.64 1085.64 1814.89 1094.83 1799.14 1121.95 1808.33 1121.08 1816.2 1094.83 1816.2 1126.33 1825.83 1130.7 1818.83 1182.32 1803.96 1193.26 1817.95 1177.95 1823.2 1189.76 1853.83 1161.76 1880.08 1137.26 1881.83 1125.45 1901.07 1130.26 1919.45 1104.45 1912.88 1044.52 1940.88 1028.77 1965.82 953.09 1943.94 878.28 1959.26 873.91 1973.26 856.85 1958.38 870.41 1953.13 841.54 1939.13 840.23 1954.88 817.91 1956.63 795.6 1940.01 796.04 1919.88 771.98 1925.13 799.1 1953.13 763.23 1962.76 761.04 1973.69 687.55 1974.57 706.8 1986.82 700.67 2001.69 634.62 1988.13 624.55 1999.94 573.81 1967.13 519.13 1980.25 502.06 1996.88 487.63 1976.32 489.81 2001.25 471 2010 481.5 2014.38 477.13 2056.37 456.13 2068.18 457.88 2083.93 444.76 2087 441.26 2067.31 437.32 2086.56 414.57 2063.37 397.51 2067.75 388.32 2057.25 408.01 2043.69 373.01 2023.13 377.82 2059 354.64 2046.75 323.58 2056.81 299.52 2052 292.96 2077.81 281.58 2072.56 257.08 2092.68 252.27 2079.12 238.71 2105.37 227.34 2104.93 247.9 2113.24 245.27 2123.3 228.21 2134.68 216.4 2109.31 187.96 2092.68 174.84 2111.49 151.5 2116.29"/><polygon points="762.47 1983.57 792.58 1964.13 800.59 1975.56 802.11 1961.08 831.46 1974.42 828.79 1987.38 816.97 1989.66 811.26 2006.43 762.47 1983.57"/><polygon points="871.76 231.88 859.65 216.31 875.22 154.01 859.65 145.36 850.99 163.53 825.04 127.19 862.24 129.78 865.7 113.34 876.09 107.29 865.7 104.69 876.95 79.6 881.28 99.5 893.39 94.31 883.01 147.95 903.77 162.66 876.95 173.04 883.01 189.48 870.03 215.44 871.76 231.88"/><polygon points="857.92 100.37 867.43 87.39 865.7 46.72 850.99 68.35 838.02 69.22 843.21 92.58 857.92 76.14 857.92 100.37"/><polygon points="888.2 83.06 878.68 58.84 895.99 25.96 915.02 40.66 925.4 0 905.5 22.5 898.58 47.59 901.18 70.08 888.2 83.06"/><polygon points="921.08 60.56 909.83 50.18 931.46 56.24 921.08 60.56"/><polygon points="562.88 126.32 542.11 128.92 525.67 102.1 536.05 93.44 555.95 102.96 548.17 122 562.88 126.32"/><polygon points="585.37 140.17 576.72 119.4 591.43 110.75 585.37 140.17"/><polygon points="611.33 87.39 604.41 103.83 583.64 102.1 584.51 89.98 554.22 95.17 551.63 67.49 547.3 87.39 540.38 48.45 562.88 45.86 578.45 64.03 566.34 73.54 600.08 82.2 600.95 93.44 611.33 87.39"/><polygon points="238.76 646.54 198.16 633.35 179.38 601.88 145.88 626.75 167.7 629.29 173.29 642.48 145.88 638.42 195.11 638.93 174.81 648.07 168.21 662.79 193.59 659.74 178.87 670.4 143.85 670.4 137.76 677.51 152.98 691.21 150.95 679.54 193.08 681.06 207.8 666.85 207.29 682.07 227.6 668.37 215.92 663.29 226.07 653.65 233.18 662.79 238.76 646.54"/><polygon points="297.13 882.06 270.74 880.53 258.56 845 277.34 814.55 289.01 853.63 300.69 856.68 293.58 865.82 297.13 882.06"/><polygon points="319.59 1206.04 333.91 1168.27 357.35 1133.11 384.7 1121.39 379.49 1142.22 392.51 1148.74 356.05 1189.11 319.59 1206.04"/><polygon points="78.22 643.74 138.34 584.23 127.3 613.99 67.18 624.42 78.22 643.74"/><polygon points="5.21 540.67 0 517.67 29.75 497.12 14.42 497.42 22.7 508.77 33.74 509.69 5.21 540.67"/><polygon points="41.72 497.42 21.17 474.72 29.75 421.66 46.01 424.42 48.16 440.98 57.05 443.74 46.93 456.63 36.2 454.79 34.66 460.61 42.33 461.84 49.08 472.88 33.74 476.56 49.08 479.32 41.72 497.42"/><polygon points="60.12 418.9 33.74 413.07 30.98 402.02 42.33 396.5 33.74 379.94 16.56 378.1 29.75 358.16 42.02 365.52 46.63 356.93 56.44 360.31 68.1 349.88 60.43 371.66 72.7 378.1 49.39 397.73 60.12 418.9"/><polygon points="91.1 346.81 73.31 321.66 91.1 322.88 79.75 311.84 87.12 302.33 98.16 310.31 109.51 310.92 121.17 313.68 128.53 322.88 137.42 312.45 127.3 310.31 119.94 287.3 135.28 275.64 124.54 290.68 141.41 310.61 158.59 303.56 157.67 290.98 146.32 283.31 167.79 289.75 169.32 267.36 149.08 272.58 134.35 265.52 153.37 266.44 155.83 260 170.55 261.23 169.32 238.53 196.01 215.22 191.72 172.88 116.87 224.42 130.98 251.1 113.8 239.75 107.06 262.76 98.77 230.25 80.37 251.72 80.06 272.88 97.24 279.33 74.85 288.22 110.12 301.41 112.58 318.28 122.09 326.26 101.23 330.55 91.1 346.81"/></svg>