<svg id="Calque_1" data-name="Calque 1" xmlns="http://www.w3.org/2000/svg" viewBox="0 0 1916.89 2164.07"><title>Brezié</title><polygon points="1164.14 2106.84 1031.03 2007.31 1017.75 2019.75 1005.31 1990.72 958.03 1960.03 951.4 1972.47 928.17 1967.49 1009.46 1848.05 1079.96 1797.45 1080.79 1737.73 1058.4 1707.87 1032.68 1715.33 1036.83 1623.26 1022.73 1612.48 990.38 1626.58 954.71 1531.19 920.71 1518.75 905.78 1528.7 847.71 1517.09 849.37 1458.2 828.63 1410.92 841.91 1396.82 827.81 1386.04 841.08 1352.03 839.42 1327.97 848.54 1303.92 828.63 1262.44 800.43 1250.83 796.29 1195.26 712.51 1197.75 703.39 1155.44 682.65 1124.75 704.22 1123.92 684.31 1079.96 687.63 1061.71 651.96 1040.98 612.97 1041.81 598.87 1020.24 551.59 994.53 535.83 997.85 525.05 982.09 493.53 987.06 431.32 918.22 432.15 830.29 365.79 841.08 319.34 887.53 304.41 883.38 272.89 912.41 264.6 899.97 179.16 900.8 172.53 815.36 141.84 848.54 100.36 849.37 90.41 818.68 42.3 808.73 53.91 796.29 0 709.19 14.1 694.26 13.27 674.36 42.3 651.96 48.11 576.48 106.17 538.32 139.35 535 160.92 520.9 187.46 530.86 205.71 487.73 206.54 406.44 217.32 354.18 206.54 316.86 184.14 299.44 186.63 258.79 211.51 251.33 225.61 257.13 228.1 236.4 194.09 231.42 195.75 191.61 271.24 195.75 277.87 183.31 287.82 194.92 312.71 172.53 331.79 189.95 329.3 224.78 346.72 224.78 373.26 252.16 402.29 232.25 407.27 250.5 469.48 209.03 481.09 184.14 515.1 160.09 481.92 156.77 471.14 97.05 446.25 53.91 482.75 70.5 521.73 73.82 544.96 96.22 544.96 67.19 593.9 58.89 621.27 38.16 632.05 38.98 651.13 19.91 651.13 0 679.33 0 683.48 19.08 673.52 38.98 691.77 43.96 703.39 72.99 680.16 129.4 690.94 185.8 734.08 219.81 750.67 220.64 749.01 208.2 815.36 179.16 880.89 186.63 870.94 160.09 923.19 146.81 960.52 173.36 984.58 160.92 1021.07 170.04 1099.04 54.74 1138.86 179.99 1173.69 202.39 1157.93 244.69 1206.87 301.93 1245.86 304.41 1244.2 336.76 1300.6 323.49 1392.67 369.94 1397.65 384.04 1414.24 375.75 1418.38 360.82 1420.87 380.72 1437.46 400.63 1434.97 412.24 1445.76 414.73 1447.42 426.35 1494.7 428 1510.45 423.03 1555.25 452.06 1566.86 441.27 1593.4 458.69 1605.84 448.74 1658.1 447.08 1737.73 503.49 1817.36 578.14 1876.25 575.65 1895.33 588.09 1916.89 721.63 1888.69 812.05 1817.36 893.33 1756.81 1016.09 1735.24 988.72 1737.73 1019.41 1722.8 1044.3 1731.09 1074.16 1725.29 1117.29 1744.36 1172.03 1721.97 1242.54 1727.78 1280.69 1711.19 1317.19 1710.36 1378.57 1694.6 1390.18 1687.96 1434.97 1663.08 1465.66 1662.25 1510.45 1625.75 1532.85 1617.46 1562.71 1578.47 1564.37 1567.69 1550.27 1566.03 1566.03 1497.18 1564.37 1490.55 1578.47 1500.5 1583.45 1449.9 1612.48 1434.97 1608.33 1418.38 1624.92 1399.31 1624.92 1381.89 1654.78 1347.88 1672.2 1337.1 1707.04 1328.8 1799.11 1338.76 1844.73 1323.83 1885.37 1288.99 1916.89 1261.62 2019.75 1203.55 2080.3 1197.75 2122.6 1167.89 2164.07 1152.96 2152.46 1151.3 2125.09 1164.14 2106.84"/></svg>