<svg id="Calque_1" data-name="Calque 1" xmlns="http://www.w3.org/2000/svg" viewBox="0 0 2578.15 2134.07"><title>Espagne</title><polygon points="0.2 1734.99 82.92 1746.6 94.53 1724.83 116.3 1745.15 97.44 1758.21 199.02 1875.76 178.7 1900.43 178.7 1930.9 213.53 1967.18 194.67 1970.09 226.59 2070.22 264.32 2074.57 274.48 2113.76 302.06 2113.76 328.18 2134.07 367.36 2110.85 360.11 2091.99 392.03 2093.44 422.51 2041.19 470.4 2042.65 511.03 2031.04 537.15 2044.1 614.07 2002.01 664.86 2012.17 689.53 2000.56 830.3 2049.9 857.87 2039.74 927.53 2044.1 958 2073.12 998.64 2074.57 1020.41 2041.19 1049.43 2051.35 1071.2 2045.55 1095.87 2083.28 1172.78 2019.43 1206.16 1946.87 1328.06 1881.56 1357.09 1901.88 1380.76 1887.76 1400.76 1903.89 1449.8 1889.69 1419.47 1866.46 1443.99 1840.65 1443.99 1821.94 1475.61 1792.9 1484.64 1743.22 1516.9 1745.16 1511.1 1714.83 1540.13 1708.38 1553.68 1670.31 1613.69 1665.14 1631.12 1638.69 1667.89 1638.69 1691.77 1617.39 1660.15 1581.91 1640.15 1580.62 1611.76 1546.42 1612.4 1472.86 1593.69 1407.69 1828.17 1130.55 1877.6 1125.38 1887.53 1103.02 1856.48 1090.59 1918.59 1027.24 2160.84 994.94 2179.47 963.88 2398.12 850.83 2398.12 801.14 2378.24 757.65 2421.72 753.93 2422.97 731.57 2363.34 704.24 2296.25 730.33 2257.74 726.6 2216.74 693.06 2186.93 710.45 2145.93 710.45 2148.42 690.57 2123.57 668.21 2086.3 691.81 2041.58 650.82 2067.67 628.46 2046.55 603.61 2010.52 606.09 1927.29 551.43 1919.83 597.4 1832.87 592.43 1821.69 568.83 1759.58 563.86 1734.73 535.28 1665.16 531.56 1637.83 485.59 1603.05 481.86 1547.14 438.38 1528.51 463.23 1496.21 428.44 1532.23 389.93 1482.54 383.72 1455.21 334.03 1409.25 348.94 1339.68 340.24 1246.5 279.37 1217.93 307.94 1140.02 282.21 1138.61 249.05 950.95 247.64 756.24 151.7 718.27 153.71 703.12 120.15 576.86 122.81 489.78 94.9 459.64 110.53 455.17 82.62 423.91 80.38 401.58 27.91 369.21 27.91 355.81 1.12 315.62 32.38 324.55 0 284.36 24.56 236.35 25.68 218.49 37.96 231.88 55.82 254.21 45.77 249.75 79.27 225.19 90.43 164.9 72.57 141.45 83.73 112.42 61.4 73.35 87.08 45.44 79.27 1.9 137.32 26.46 142.9 28.69 188.68 75.58 183.1 17.53 234.45 23.11 248.97 54.37 223.29 95.68 225.52 65.53 271.3 35.39 288.04 85.63 299.21 35.39 322.65 44.32 336.05 84.51 324.88 80.05 343.86 26.46 367.31 15.29 432.06 63.3 399.69 125.82 406.38 154.85 391.87 179.41 437.64 143.69 446.58 143.69 478.95 198.39 476.72 209.56 496.82 240.81 480.07 257.56 510.21 286.59 505.75 294.4 521.38 340.18 515.79 347.99 491.23 436.19 521.38 477.5 529.19 452.94 600.64 497.6 600.64 521.04 641.95 471.92 685.49 442.89 717.87 387.07 722.34 372.56 754.71 335.71 750.25 349.11 847.38 321.2 932.23 333.48 950.09 270.96 957.9 291.4 1012.11 240.36 1096.07 133.35 1084.55 181.1 1137.23 167.93 1203.09 215.67 1249.18 184.39 1287.05 186.03 1324.91 131.71 1326.56 105.36 1394.06 131.71 1486.25 171.22 1466.5 158.05 1520.83 87.25 1535.64 0 1631.13 18.11 1655.83 0.2 1734.99"/><polygon points="1941.02 1626.19 1995.35 1571.86 1936.08 1560.34 1936.08 1586.68 1899.86 1594.91 1941.02 1626.19"/><polygon points="2197.85 1484.61 2217.6 1456.62 2255.47 1514.24 2294.98 1517.53 2309.8 1545.52 2349.31 1496.13 2375.65 1489.55 2378.94 1459.91 2411.87 1433.57 2392.11 1420.4 2359.19 1435.22 2327.91 1413.82 2352.6 1362.78 2270.29 1389.12 2240.65 1418.75 2163.28 1451.68 2197.85 1484.61"/><polygon points="2481.02 1392.41 2482.66 1352.9 2555.1 1357.84 2578.15 1423.69 2536.99 1412.17 2510.65 1387.47 2481.02 1392.41"/></svg>