<svg id="Calque_1" data-name="Calque 1" xmlns="http://www.w3.org/2000/svg" viewBox="0 0 1761.89 2134.4"><title>Italie</title><polygon points="108.23 643.63 140.47 583.76 127.81 560.73 86.35 572.24 31.09 541.15 21.88 484.74 54.12 446.74 44.9 420.26 0 368.45 72.54 340.81 81.75 309.73 29.94 227.98 153.13 196.89 181.92 216.46 267.12 110.53 274.03 153.13 321.24 186.53 341.96 244.09 355.78 186.53 388.02 151.98 391.47 100.17 431.77 149.68 483.58 133.56 506.61 171.56 492.8 113.99 519.28 81.75 554.97 102.47 544.61 75.99 560.73 38 625.21 59.87 653.99 19.57 797.91 0 831.12 78.66 1006.88 114.58 959.5 167.31 1000.77 185.65 977.84 217.74 996.18 223.09 991.6 255.95 1026.75 275.05 1023.69 304.86 990.07 262.83 969.44 285.75 926.64 268.94 925.88 286.52 827.3 334.66 841.06 310.97 808.2 328.55 789.86 367.52 807.43 382.04 809.73 408.02 840.29 431.71 825.01 465.33 806.67 457.69 807.43 546.34 863.98 632.69 995.42 715.22 1068.78 909.32 1175.77 1017.83 1270.52 1047.63 1264.41 1056.8 1291.92 1055.28 1285.81 1047.63 1369.87 1039.23 1389.73 1056.8 1384.38 1082.02 1350 1109.53 1368.34 1145.45 1558.62 1221.87 1685.47 1292.93 1761.89 1378.52 1751.19 1455.7 1695.4 1432.78 1666.36 1367.06 1607.52 1364.77 1564.73 1340.31 1576.96 1324.27 1529.58 1325.03 1473.79 1415.97 1477.61 1441.18 1453.92 1476.34 1464.62 1503.85 1504.36 1512.25 1562.44 1555.05 1563.2 1608.54 1575.43 1630.7 1564.73 1652.86 1530.34 1649.04 1475.32 1694.89 1484.49 1754.49 1421.83 1814.1 1410.37 1858.42 1348.47 1863.77 1333.95 1804.17 1362.22 1790.41 1378.27 1739.98 1360.69 1720.11 1388.2 1700.24 1417.24 1696.42 1421.06 1661.27 1398.9 1632.23 1378.27 1548.17 1349.23 1500.79 1337.77 1444.24 1307.2 1423.61 1281.22 1441.18 1204.8 1391.51 1220.09 1369.35 1179.59 1304.4 1117.69 1323.5 1136.03 1293.7 1109.28 1274.59 1071.07 1280.71 1021.4 1191.3 996.18 1198.94 950.33 1180.6 922.06 1195.88 886.91 1156.15 850.23 1144.68 792.15 1086.61 767.7 1040.76 731.78 1027.77 685.93 959.75 636.26 958.23 621.74 946.76 638.55 936.83 576.65 870.35 573.6 840.54 536.91 837.49 546.85 788.58 508.64 710.63 504.82 645.68 448.27 594.48 449.8 608.23 367.27 547.1 295.44 523.41 251.88 547.1 241.18 572.32 214.43 587.6 201.44 618.17 108.23 643.63"/><polygon points="520.87 884.87 509.4 874.17 488.77 880.28 478.07 866.52 510.93 865 527.75 854.3 520.87 884.87"/><polygon points="172.4 1228.74 160.94 1304.4 183.87 1306.69 196.86 1357.13 206.79 1365.53 206.03 1415.2 192.27 1418.26 194.56 1453.41 210.61 1447.3 209.85 1492.38 197.62 1479.39 199.91 1514.55 185.4 1539 189.22 1573.39 179.28 1590.2 216.73 1657.44 232.77 1651.33 251.11 1660.5 281.68 1632.99 283.21 1587.9 302.31 1600.9 316.83 1592.49 358.86 1619.24 377.97 1559.63 400.13 1418.26 384.08 1393.81 420 1334.96 390.96 1249.38 374.91 1247.85 396.31 1229.51 377.2 1226.45 383.32 1203.53 364.98 1207.35 331.35 1176.78 233.54 1255.49 191.51 1253.96 172.4 1228.74"/><polygon points="180.05 1639.11 171.64 1612.36 186.92 1616.94 180.05 1639.11"/><polygon points="163.23 1608.54 154.06 1597.08 164 1590.96 163.23 1608.54"/><polygon points="1333.64 1794.6 1270.5 1901.36 1252.27 1959.94 1254.22 1995.09 1278.31 2006.16 1269.19 2019.83 1294.58 2058.89 1262.68 2085.58 1263.34 2134.4 1159.83 2109.01 1111.01 2046.52 1060.89 2046.52 900.1 1947.57 857.14 1952.13 816.78 1903.31 833.05 1849.93 872.11 1821.29 896.85 1855.14 922.88 1842.12 925.49 1820.64 963.24 1814.78 974.96 1835.61 1030.94 1866.2 1071.3 1849.93 1175.46 1840.82 1193.03 1821.29 1249.02 1829.75 1271.8 1807.62 1333.64 1794.6"/></svg>