<svg id="Calque_1" data-name="Calque 1" xmlns="http://www.w3.org/2000/svg" viewBox="0 0 3603.02 2135.25"><title>Russie</title><polygon points="439.92 1665.52 361.52 1737.88 393.84 1791.38 392.23 1852.72 371.24 1843.03 385.77 1876.93 311.52 1865.63 293.77 1893.07 256.64 1891.46 266.33 1922.12 229.2 1997.99 240.5 2056.09 184.01 2064.16 154.95 1970.55 163.02 1959.25 101.69 1902.75 20.98 1784.92 0 1634.81 77.48 1644.5 66.18 1610.6 130.74 1626.74 101.69 1602.53 142.04 1584.78 171.09 1608.99 206.6 1562.18 234.04 1555.72 195.31 1496 188.85 1457.26 150.11 1413.68 169.48 1387.86 153.34 1350.73 180.78 1324.91 132.36 1273.26 161.41 1224.83 204.99 1242.59 206.6 1169.95 246.96 1119.92 227.59 1100.55 230.82 1019.84 359.94 934.3 390.61 979.49 382.54 902.01 531.04 898.79 542.34 837.45 661.78 709.94 702.13 705.09 705.36 661.51 761.85 638.92 828.03 677.65 802.21 682.5 842.56 751.9 857.09 835.84 824.8 902.01 750.55 879.42 705.36 758.36 697.29 843.91 656.94 900.4 681.15 963.35 702.13 898.79 752.17 973.03 758.63 924.61 852.24 935.91 842.56 973.03 878.07 939.14 920.03 882.64 918.42 843.91 957.16 877.8 958.77 919.77 915.19 919.77 923.26 964.96 957.16 948.82 1097.59 943.98 1083.06 976.26 1196.05 994.02 1189.59 1027.91 1226.71 969.81 1339.7 1065.04 1342.93 1092.48 1362.3 1061.81 1339.7 1003.7 1362.3 935.91 1430.09 858.43 1483.36 887.49 1457.53 939.14 1462.37 974.65 1426.86 1081.18 1438.16 1110.23 1386.51 1176.41 1334.86 1173.18 1389.74 1210.31 1459.14 1142.52 1460.76 1105.39 1496.27 1095.71 1512.41 1165.11 1517.25 1097.32 1486.58 1073.11 1457.53 1074.72 1484.97 997.25 1475.29 950.44 1509.18 924.61 1512.41 881.03 1525.32 929.45 1514.02 974.65 1564.06 990.79 1527.72 944.47 1557.98 940.29 1550.68 907.94 1629.99 963.25 1606.18 910.54 1613.94 862.72 1717.97 853.67 1697.93 828.48 1823.64 727.15 1906.84 700.97 1905.3 640.88 1959.22 633.18 1939.19 660.91 2068.6 685.56 2071.68 761.05 2002.35 882.75 2074.76 814.97 2190.3 790.32 2270.41 788.78 2251.93 728.7 2338.2 728.7 2436.8 824.21 2426.01 757.97 2484.55 733.32 2543.1 696.34 2504.58 667.07 2536.93 608.53 2597.02 631.64 2606.26 570.01 2644.77 549.99 2723.34 562.31 2777.26 468.34 2840.43 492.99 2912.84 391.31 2920.54 338.93 2934.4 366.66 2985.24 345.09 2917.46 315.82 3125.44 103.22 3208.63 92.44 3163.95 78.57 3228.66 0 3250.22 53.92 3308.76 84.73 3257.93 144.81 3176.28 194.11 3247.14 237.25 3220.95 303.5 3353.44 274.22 3328.79 335.85 3401.2 534.58 3347.28 566.93 3327.25 693.26 3390.42 776.45 3407.36 741.02 3481.31 787.24 3470.53 821.13 3536.77 861.18 3513.66 898.16 3570.66 955.16 3541.39 990.59 3593.77 1032.19 3603.02 1106.14 3362.68 976.73 3322.63 879.67 3271.79 690.18 3273.33 650.13 3220.95 616.23 3224.03 586.96 3199.38 628.56 3245.6 657.83 3247.14 737.94 3187.06 702.5 3157.79 779.53 3200.92 896.62 3230.2 879.67 3182.44 982.89 3167.03 952.08 3113.11 995.22 3120.81 1016.78 3005.27 1138.49 2994.49 1438.9 3048.41 1414.25 3117.73 1420.42 3096.16 1388.06 3187.06 1378.82 3237.9 1428.12 3194.76 1360.33 3183.98 1304.87 3399.66 1466.63 3375.01 1482.04 3399.66 1549.83 3489.01 1588.34 3445.88 1602.2 3461.28 1646.88 3356.52 1543.66 3293.36 1449.69 3237.9 1428.12 3259.47 1492.82 3327.25 1586.8 3348.82 1922.65 3268.71 1993.51 3231.74 2052.05 3244.06 1993.51 3180.9 1930.35 3233.28 1885.67 3187.06 1708.51 3105.41 1811.72 3060.73 1773.21 2951.35 1785.53 2826.56 1673.07 2700.24 1697.72 2666.34 1756.26 2695.61 1777.83 2692.53 1899.54 2641.69 1941.13 2540.01 1944.21 2455.28 2032.03 2359.77 2038.19 2281.2 2012 2193.38 2042.81 2122.52 1984.27 2040.87 1971.94 2011.6 2016.62 2027 2064.38 1985.41 2095.19 1839.05 2052.05 1684.99 2135.25 1648.02 2109.06 1601.8 2109.06 1538.64 2030.49 1435.42 2021.24 1353.77 1845.62 1369.17 1825.59 1264.41 1857.94 1204.33 1800.94 1195.09 1743.94 914.7 1711.59 925.49 1771.67 846.92 1799.4 876.19 1839.45 851.54 1865.64 740.62 1804.02 645.1 1774.75 623.53 1703.88 580.39 1663.83 471.01 1705.42 439.92 1665.52"/><polygon points="1202.95 896.42 1197.42 824.58 1366.89 697.48 1484.78 682.74 1479.26 633 1317.15 662.48 1136.63 802.47 1166.11 844.84 1142.16 865.1 1202.95 896.42"/><polygon points="1873.45 616.43 1886.35 533.53 1941.61 581.43 1873.45 616.43"/><polygon points="1856.88 572.22 1858.72 511.43 1825.56 496.69 1799.77 537.22 1856.88 572.22"/><polygon points="1783.19 505.9 1781.35 448.8 1827.4 443.27 1823.72 478.27 1783.19 505.9"/><polygon points="2926.9 161.89 2900.52 112.89 2941.98 97.82 2926.9 161.89"/><polygon points="2414.35 572.68 2357.82 561.38 2357.82 512.38 2444.5 478.46 2414.35 572.68"/><polygon points="2531.18 440.78 2508.57 474.69 2462.12 466.8 2531.18 440.78"/><polygon points="2476.46 611.96 2521.26 588.66 2453.16 579.7 2476.46 611.96"/></svg>