<svg id="Calque_1" data-name="Calque 1" xmlns="http://www.w3.org/2000/svg" viewBox="0 0 3355.34 2142.49"><title>Suisse</title><polygon points="173.63 1640.34 215.15 1681.86 249.12 1683.74 234.03 1713.94 184.96 1729.04 115.13 1793.21 56.62 1781.88 49.07 1800.76 3.77 1795.09 20.76 1761.12 0 1738.47 39.63 1702.62 109.46 1687.52 101.91 1647.88 145.32 1568.62 79.27 1500.67 135.89 1391.21 105.69 1334.59 368.02 1113.78 345.38 1085.47 371.8 1028.85 373.69 992.99 347.26 962.79 392.56 908.06 490.7 879.75 518.04 836.3 547.95 831.7 531.84 809.85 557.15 778.79 588.21 774.18 580.16 756.93 598.56 740.83 615.82 740.83 666.43 697.11 654.93 683.31 671.03 677.55 737.75 611.99 732 563.67 779.17 547.57 782.62 528.01 811.38 514.21 817.13 491.2 786.07 465.89 745.81 478.55 692.89 477.39 695.19 457.84 728.55 401.47 768.81 383.07 756.16 347.4 772.26 325.55 835.53 341.65 868.89 327.85 894.2 346.25 913.76 345.11 897.65 391.12 945.97 404.92 960.92 419.88 993.13 402.62 1062.15 407.22 1108.17 360.06 1084.01 345.11 1096.66 331.3 1118.52 349.71 1138.08 346.25 1155.33 322.1 1140.38 292.19 1199.04 266.88 1217.45 230.07 1264.61 215.12 1264.61 243.87 1245.06 264.58 1271.52 296.79 1366.99 268.03 1384.25 232.37 1438.32 239.27 1449.82 271.48 1472.83 285.29 1480.88 270.33 1537.25 278.38 1562.55 257.68 1587.86 268.03 1592.46 240.42 1640.78 224.32 1669.54 194.41 1682.19 208.21 1729.35 209.36 1740.86 236.97 1776.52 257.68 1862.79 249.63 1878.9 233.52 1854.74 230.07 1853.59 205.91 1900.76 185.21 1934.12 205.91 1938.72 224.32 1954.82 218.57 1961.72 165.65 1976.68 177.15 1976.68 155.3 1953.67 138.04 1918.01 143.79 1903.06 164.5 1863.94 177.15 1862.79 155.3 1838.64 155.3 1820.23 143.79 1828.28 108.13 1854.74 79.37 1876.6 40.26 1939.87 25.31 1934.12 0 1977.83 6.9 1991.63 47.16 1998.54 4.6 2022.69 33.36 2023.84 55.22 2042.25 42.56 2054.9 58.67 2043.4 74.77 2058.35 102.38 2015.79 95.48 2007.74 126.54 2031.9 116.19 2098.62 135.74 2112.42 113.89 2088.26 102.38 2107.82 78.22 2159.58 111.58 2143.48 120.79 2175.69 167.95 2266.57 131.14 2367.8 159.9 2440.27 162.2 2646.18 281.83 2694.5 369.26 2738.21 379.62 2738.21 444.04 2750.86 464.74 2716.35 470.49 2608.22 653.4 2636.98 761.53 2605.92 811 2678.22 825.98 2739.43 814.5 2873.32 871.88 2895.92 854.12 2909.24 887.41 2900.92 949 3024.09 1003.93 3060.72 1045.54 3110.65 1050.54 3143.94 1018.91 3172.24 1022.24 3182.23 957.32 3225.51 967.31 3255.47 890.74 3287.1 882.41 3308.74 919.03 3355.34 940.67 3327.05 1088.82 3308.74 1108.8 3322.05 1140.42 3288.76 1172.05 3302.08 1188.69 3275.45 1221.99 3292.09 1276.92 3320.39 1273.59 3353.68 1300.22 3335.37 1371.8 3220.51 1370.13 3177.24 1331.85 3187.22 1303.55 3162.25 1273.59 3072.37 1308.54 3022.43 1428.39 3037.41 1501.63 3092.34 1493.31 3112.32 1526.6 3080.69 1553.24 3070.7 1598.18 3122.3 1674.75 3090.68 1709.7 3042.41 1711.37 3034.08 1664.76 2990.8 1643.12 2992.47 1581.53 2959.18 1543.25 2860.97 1566.55 2839.33 1593.18 2801.04 1576.54 2779.4 1636.46 2677.86 1629.81 2601.3 1549.91 2597.97 1415.08 2571.33 1416.74 2553.02 1453.36 2514.74 1406.75 2454.81 1431.72 2453.15 1470.01 2431.51 1496.64 2458.14 1519.94 2469.79 1608.17 2388.23 1764.64 2306.67 1819.57 2311.66 1871.17 2261.72 1897.8 2266.72 1964.38 2248.41 1982.69 2265.05 2035.96 2311.66 2060.93 2271.71 2142.49 2191.81 2120.85 2211.79 2090.89 2170.17 1992.68 2105.25 1952.73 2151.86 1884.48 2113.58 1832.88 2013.7 1832.88 1853.9 1683.07 1835.59 1624.81 1858.9 1589.86 1848.91 1453.36 1729.06 1496.64 1730.72 1524.94 1749.04 1538.25 1654.15 1631.47 1619.2 1624.81 1570.93 1679.74 1614.2 1708.04 1627.52 1791.27 1595.89 1829.55 1537.63 1846.2 1534.31 1899.47 1502.68 1947.74 1434.43 1956.06 1411.13 2022.64 1304.6 2010.99 1181.42 1954.4 1059.9 2049.28 988.33 2034.3 916.75 2097.55 881.79 2074.25 853.5 2099.21 713.67 1866.17 687.04 1889.48 695.36 1817.9 603.81 1792.93 630.45 1757.98 623.79 1718.03 668.73 1638.13 600.48 1566.55 623.79 1546.58 618.79 1501.63 392.41 1479.99 224.29 1553.24 173.63 1640.34"/></svg>