<svg id="Calque_1" data-name="Calque 1" xmlns="http://www.w3.org/2000/svg" viewBox="0 0 1017.95 2123.35"><title>Vietnam</title><polygon points="366.28 2123.35 388.96 2098.28 372.25 2097.09 379.41 1953.83 405.68 1932.35 412.84 1941.9 405.68 1914.44 378.22 1907.28 365.76 1888.01 349.61 1900.58 330.58 1870.07 328.07 1858.22 343.86 1843.15 375.45 1846.74 389.45 1829.15 406.68 1835.25 404.52 1842.79 393.75 1843.87 394.47 1826.28 407.04 1819.46 399.5 1800.79 402.37 1788.23 432.16 1792.9 442.57 1801.51 454.77 1782.49 472.72 1785.72 498.92 1776.74 513.28 1788.23 519.38 1806.18 528 1793.61 544.87 1806.18 561.02 1807.25 552.05 1785.72 577.53 1778.9 575.02 1764.9 566.76 1766.33 566.4 1778.54 515.79 1736.9 518.31 1701.01 505.74 1693.11 514.36 1682.7 526.2 1684.14 536.25 1667.98 565.69 1673.01 573.58 1680.91 595.48 1679.47 590.81 1665.83 597.27 1651.83 590.09 1639.63 632.09 1638.91 640.71 1625.27 669.78 1621.32 699.21 1590.1 717.88 1585.79 729.72 1597.99 748.03 1582.56 754.13 1554.92 749.82 1528.36 757 1516.87 766.33 1521.54 764.18 1531.95 755.57 1531.59 739.05 1501.44 741.57 1475.6 758.44 1436.83 755.57 1408.11 735.82 1378.68 732.95 1348.89 721.83 1344.22 718.95 1326.28 724.34 1310.12 723.26 1295.77 730.8 1285.36 739.77 1283.2 747.67 1253.77 743 1231.52 751.98 1220.39 734.75 1205.67 739.41 1195.62 754.49 1194.9 760.23 1174.44 765.62 1172.29 765.62 1161.16 754.13 1153.63 753.05 1144.65 742.28 1144.65 738.7 1130.65 731.16 1132.45 706.03 1110.91 706.75 1101.22 693.83 1092.25 698.13 1080.05 724.34 1073.22 736.18 1058.15 735.11 1048.1 722.18 1052.77 692.39 1033.02 693.11 1025.13 682.7 1017.59 675.88 1018.67 656.14 1001.44 655.06 982.41 639.99 998.92 627.07 996.05 623.83 977.03 609.48 966.26 610.55 919.6 602.66 922.83 590.45 911.34 588.3 899.86 577.89 892.32 578.97 879.04 572.87 872.94 566.04 883.35 495.69 814.79 480.98 790.02 480.98 775.31 456.93 741.92 450.11 751.98 438.98 744.8 438.62 736.18 429.65 735.82 408.11 705.67 413.86 687.37 422.83 684.5 382.63 661.16 361.81 660.09 325.92 631.73 316.94 630.65 288.94 612.35 274.95 597.27 254.85 596.91 240.85 583.63 273.15 558.51 269.56 548.46 258.44 536.25 263.46 528.36 273.51 535.89 278.89 529.08 294.33 527.28 302.58 536.25 309.05 529.79 328.43 541.64 346.38 540.2 352.84 525.13 374.01 512.21 363.96 503.23 380.12 488.16 392.68 486.36 390.88 470.21 373.65 451.54 356.78 456.57 349.25 449.39 357.14 438.26 340.63 424.98 312.99 425.7 309.4 419.24 321.97 407.39 328.43 411.7 343.86 393.4 276.74 347.81 227.93 366.12 220.03 391.24 178.75 368.63 172.65 373.3 153.98 365.76 141.78 364.68 124.19 334.17 113.78 328.43 106.25 308.69 94.76 304.02 106.61 295.76 109.48 276.02 101.22 279.97 116.66 258.08 114.5 235.82 99.43 239.41 95.12 219.31 91.17 239.77 81.84 248.74 70.71 244.8 69.28 217.16 49.53 201.72 49.17 189.88 5.38 155.78 0 137.83 16.15 136.4 17.95 126.7 35.89 112.35 34.1 99.78 44.51 86.5 53.48 87.94 58.51 96.55 65.69 94.76 87.22 107.32 97.99 110.91 106.61 126.35 124.19 135.68 129.22 126.7 142.86 118.45 138.19 114.86 156.86 97.99 162.96 83.63 179.11 90.45 180.55 104.45 189.52 113.78 198.85 106.61 197.42 95.48 208.9 81.12 255.21 123.47 262.02 94.04 292.18 76.81 293.25 89.02 310.84 99.43 334.53 78.97 357.14 79.68 374.37 62.81 370.42 42.35 381.91 29.79 392.32 30.51 414.93 16.51 427.14 16.51 437.19 0 472.72 33.38 472 41.64 478.82 47.02 494.98 47.74 514 64.97 536.97 58.51 557.07 57.43 566.76 66.05 569.99 75.74 583.63 75.74 604.09 67.12 611.99 66.4 620.25 76.09 627.07 73.22 647.52 85.07 638.19 94.04 629.58 115.58 618.45 109.12 606.96 140.7 613.42 148.96 625.63 151.47 628.86 189.52 626.71 201 639.63 195.98 656.5 202.08 660.8 210.34 677.32 206.75 674.45 224.34 688.08 227.57 695.98 237.62 713.93 237.98 719.31 254.49 734.39 245.87 743.36 257.36 785.36 245.87 803.3 262.02 812.28 271 802.23 279.25 801.15 266.33 791.82 270.28 780.33 265.97 785.72 274.23 774.59 284.64 767.41 282.48 756.64 299.35 746.95 288.94 748.75 297.2 733.31 294.69 724.7 311.2 729.36 315.51 724.34 339.56 705.67 341.35 698.85 351.76 684.5 346.02 696.34 336.32 677.32 338.12 669.78 328.43 662.6 333.81 662.96 345.66 642.14 337.4 625.27 339.91 631.37 347.45 643.22 353.91 632.81 357.86 641.06 363.6 639.27 371.86 652.19 385.5 629.94 383.35 632.45 391.6 622.76 394.11 623.48 401.29 609.48 407.39 616.66 407.39 615.94 416.73 607.68 427.14 611.27 432.16 620.25 421.75 605.89 422.47 597.63 428.21 597.63 436.83 607.68 440.42 610.55 448.67 591.17 455.49 559.59 488.16 544.87 489.59 541.28 484.21 523.69 496.05 513.28 488.51 517.95 480.98 528.72 482.77 530.15 504.67 517.95 516.87 525.84 517.59 506.46 544.51 512.92 542.71 506.82 572.15 511.13 573.58 507.9 592.97 498.56 599.79 497.85 615.58 484.93 620.25 482.41 637.47 510.77 676.24 513.64 693.47 540.92 720.75 541.64 736.54 528.72 734.39 530.15 723.98 546.3 725.41 551.69 732.59 564.97 735.11 584.35 751.62 579.68 758.44 594.4 757 609.12 777.1 600.5 786.79 603.73 813.35 577.17 804.74 606.25 817.3 624.91 848.17 647.16 870.78 653.63 881.91 647.52 888.73 637.83 882.99 642.14 874.01 655.06 876.53 695.26 905.24 693.11 914.93 703.16 925.34 699.21 932.52 706.03 928.21 732.23 951.9 766.69 979.54 739.41 967.34 766.33 986.72 772.79 984.57 792.18 1006.1 786.07 1008.62 797.56 1023.33 794.69 1030.87 784.64 1030.51 785.36 1020.46 801.87 1017.95 804.38 1008.62 811.56 1011.49 819.46 1010.05 826.28 1026.56 840.63 1028.36 832.02 1039.84 842.07 1047.74 866.84 1043.43 848.89 1034.82 849.25 1058.15 874.73 1081.12 877.25 1108.4 871.14 1114.5 862.89 1107.32 869.35 1100.86 884.07 1105.89 904.88 1129.58 899.86 1138.55 910.99 1137.12 924.27 1159.01 922.11 1168.7 910.63 1167.63 909.19 1157.93 926.06 1152.55 926.06 1142.5 944.01 1168.7 934.67 1182.7 951.9 1228.29 964.47 1243 961.24 1268.85 970.57 1282.85 971.64 1298.28 979.18 1305.46 981.34 1323.05 974.52 1322.69 984.21 1333.1 989.23 1362.53 980.98 1368.99 984.57 1379.76 980.62 1387.65 971.64 1384.07 966.26 1396.27 981.34 1395.19 992.82 1410.27 984.93 1422.83 984.93 1435.04 992.82 1439.34 986 1450.11 994.98 1449.39 994.62 1474.16 1016.51 1502.52 1001.44 1521.18 1017.95 1539.13 1012.21 1551.33 1000.72 1539.84 1006.1 1530.15 998.57 1522.26 976.67 1545.95 967.34 1542 961.24 1548.1 966.98 1556.71 977.75 1549.54 999.64 1576.82 992.46 1579.33 979.54 1569.28 969.85 1569.99 982.41 1578.61 982.05 1595.12 974.52 1595.48 983.13 1605.89 975.24 1605.17 987.44 1618.81 974.16 1617.73 981.34 1633.53 969.49 1650.76 967.7 1660.09 979.18 1653.99 980.26 1665.83 986.72 1671.58 969.13 1695.98 954.06 1685.93 955.85 1721.11 945.8 1732.95 935.39 1727.93 918.88 1739.06 917.45 1750.9 888.01 1753.41 877.96 1771.72 855.35 1776.74 847.45 1769.92 851.04 1763.1 861.09 1765.97 861.09 1782.85 852.84 1786.79 829.15 1788.59 814.07 1820.53 797.2 1818.38 744.8 1850.68 727.57 1850.33 721.47 1843.51 726.49 1837.76 735.11 1839.56 734.75 1845.66 726.13 1856.07 710.34 1867.91 700.65 1853.56 678.03 1851.4 667.63 1848.89 664.39 1858.58 670.14 1865.4 658.29 1866.12 645.73 1858.22 645.37 1883.35 597.63 1875.45 650.04 1899.86 636.76 1915.29 632.81 1910.27 626.35 1926.06 577.53 1882.99 631.01 1935.75 622.4 1947.96 552.05 1885.14 619.89 1964.47 597.63 1991.39 512.56 1919.24 566.04 1983.13 564.61 2002.88 548.82 2011.85 539.13 2002.52 548.82 1996.06 559.59 2015.08 465.54 2055.28 454.06 2072.87 440.42 2100.51 430.37 2101.58 411.7 2122.4 366.28 2123.35"/></svg>