<svg id="Calque_1" data-name="Calque 1" xmlns="http://www.w3.org/2000/svg" viewBox="0 0 2058.3 2148.48"><title>France</title><polygon points="1017.71 1862.08 931.23 1886.1 873.58 1854.87 825.53 1864.48 791.9 1799.62 638.16 1734.76 628.55 1775.6 421.96 1717.94 330.67 1648.28 297.04 1648.28 323.47 1609.84 280.23 1597.83 265.81 1571.41 299.44 1556.99 385.93 1323.97 414.75 1319.17 402.74 1275.93 383.38 1300.05 390.29 1245.47 435.88 1120.44 474.56 1181.23 473.87 1233.73 495.29 1284.16 507.03 1248.24 491.14 1223.37 490.45 1162.58 417.92 1076.23 426.21 1063.11 457.99 1087.29 447.63 1066.56 457.99 1001.63 444.17 976.76 462.82 960.87 450.39 941.53 440.72 952.58 359.9 901.47 360.59 867.62 323.29 810.28 352.3 788.18 348.84 761.24 321.9 752.95 349.53 728.77 412.39 757.78 358.51 709.43 305.32 722.55 281.84 700.45 303.94 685.94 297.73 657.62 239.7 659 266.64 639.66 245.23 624.46 197.56 625.85 201.02 597.52 179.6 605.12 107.76 566.44 100.16 542.95 67.7 543.64 63.55 556.77 37.3 555.39 35.92 518.08 0 493.22 66.31 489.07 38.68 455.22 19.34 462.13 20.72 439.33 74.6 454.53 74.6 440.03 51.12 437.26 61.48 416.54 37.3 425.52 0 424.83 20.03 388.91 67.01 377.17 145.75 397.89 151.28 382.69 178.22 394.44 190.66 363.35 214.83 371.64 240.39 363.35 283.22 407.56 295.65 444.86 361.97 426.21 374.4 444.17 396.51 443.48 409.63 465.58 419.3 428.97 433.81 452.46 494.6 454.53 467.66 412.39 487 366.11 472.49 350.23 495.29 326.74 458.68 283.91 459.37 234.17 451.08 206.54 490.45 234.17 525.68 225.88 541.57 241.77 528.45 261.81 542.26 308.09 610.65 317.07 685.25 344.7 723.25 319.83 788.18 318.45 721.86 297.73 743.28 261.81 797.85 234.87 881.43 225.88 936.7 178.22 962.25 179.6 940.84 149.9 955.35 133.32 962.95 33.16 1096.27 0 1130.11 91.87 1175.02 73.91 1187.45 139.54 1234.42 143.68 1235.11 188.58 1288.3 182.37 1306.95 201.02 1289.68 252.13 1357.38 272.17 1395.37 230.03 1394.68 309.47 1465.14 374.4 1621.95 397.89 1657.87 458.68 1734.55 473.87 1756.65 455.22 1767.01 484.93 1851.29 508.41 1786.35 598.9 1756.65 672.82 1764.25 715.65 1743.53 773.67 1758.72 793.01 1729.02 824.79 1677.21 816.5 1670.06 866.64 1591.45 932.41 1589.84 985.36 1536.9 1022.25 1519.25 1083.22 1535.3 1102.47 1578.61 1060.76 1639.58 1081.61 1634.76 1113.7 1673.27 1142.58 1634.76 1181.08 1663.64 1227.61 1689.31 1269.32 1644.39 1319.05 1613.91 1306.22 1599.47 1344.72 1655.62 1391.24 1636.37 1489.11 1726.21 1548.47 1764.71 1529.21 1729.42 1622.26 1586.63 1718.52 1594.66 1739.38 1459.89 1766.65 1341.18 1696.06 1366.85 1675.21 1275.4 1686.44 1252.94 1662.37 1200 1667.18 1190.37 1628.68 1025.13 1713.71 999.46 1834.03 1017.71 1862.08"/><polygon points="1997.34 2148.48 2032.63 2071.47 2034.23 2007.3 2058.3 1983.23 2055.09 1882.16 2043.2 1851.58 2052.73 1827.75 2035.26 1789.63 2021.76 1837.28 2030.49 1863.49 2000.32 1855.55 1947.11 1880.17 1904.22 1934.17 1921.7 1957.2 1899.46 1965.14 1924.08 1998.49 1908.99 2019.14 1944.73 2034.23 1922.49 2060.44 1955.05 2082.67 1931.23 2091.41 1949.49 2116.03 1986.82 2121.59 1997.34 2148.48"/><polygon points="422.69 1046.45 424.36 1026.78 407.02 1010.1 405.68 1029.11 422.69 1046.45"/><polygon points="423.36 984.75 396.68 959.74 393.34 972.08 423.36 984.75"/><polygon points="289.63 851.36 281.95 841.68 291.96 836.68 297.96 844.35 289.63 851.36"/><polygon points="318.31 787.32 305.3 780.65 311.97 772.32 318.31 787.32"/><polygon points="202.58 695.28 186.91 673.6 179.24 682.94 202.58 695.28"/></svg>