<svg id="Calque_1" data-name="Calque 1" xmlns="http://www.w3.org/2000/svg" viewBox="0 0 2566.29 2139.27"><title>Pologne</title><polygon points="741.56 1893.47 616.58 1768.49 679.07 1724.75 635.32 1672.67 560.34 1693.5 512.42 1658.09 464.51 1668.51 360.36 1626.85 356.2 1583.1 279.13 1572.69 291.62 1464.37 262.46 1441.45 256.21 1378.96 202.05 1383.13 199.97 1312.31 147.9 1241.48 197.89 1195.66 174.97 1091.51 143.73 1089.42 120.82 1029.02 149.98 1006.1 143.73 937.36 93.74 941.53 0 851.96 20.83 818.63 72.91 799.88 74.99 668.65 33.33 522.84 77.07 549.92 110.4 481.18 64.57 458.27 62.49 420.77 397.86 281.21 437.44 289.54 518.67 154.14 574.92 147.9 664.49 64.57 747.81 52.08 804.05 2.08 926.95 0 968.61 77.07 972.77 139.56 1008.19 160.39 1139.42 154.14 1168.58 185.39 1256.07 108.32 1626.85 87.49 1985.13 12.5 2018.45 37.49 2120.52 66.66 2149.68 197.89 2201.76 314.54 2293.41 424.94 2289.25 477.01 2314.24 487.43 2328.82 602 2293.41 649.9 2255.92 660.32 2191.34 760.3 2193.43 835.29 2270.5 837.38 2326.74 866.54 2326.74 1022.77 2393.4 1122.75 2385.07 1172.74 2462.14 1226.9 2526.71 1314.39 2503.8 1341.47 2566.29 1420.63 2520.46 1470.62 2535.05 1491.45 2468.39 1497.7 2466.3 1556.02 2410.06 1595.6 2362.15 1724.75 2283 1845.56 2280.92 1910.14 2322.58 1960.13 2326.74 2035.12 2376.74 2070.53 2289.25 2072.61 2258 2058.03 2214.26 2055.95 2160.1 2037.2 2122.61 1989.29 2066.36 1989.29 2035.12 1972.63 2008.04 1987.21 1905.97 1985.13 1868.48 2066.36 1805.98 2014.29 1764.33 2045.53 1735.16 2033.04 1653.92 2103.86 1651.84 2139.27 1610.18 2120.52 1581.02 2133.02 1585.18 2076.78 1522.69 2058.03 1483.12 2005.96 1410.21 2049.7 1406.04 2089.28 1356.05 2103.86 1353.97 2049.7 1318.56 2045.53 1316.47 2010.12 1247.73 1960.13 1241.48 1918.47 1214.4 1891.39 1168.58 1916.39 1093.59 1872.64 1043.6 1910.14 1014.43 1862.23 974.86 1849.73 1029.02 1820.57 989.44 1762.24 966.52 1803.9 918.62 1810.15 858.21 1783.07 847.79 1755.99 762.39 1753.91 820.71 1841.4 760.3 1853.89 741.56 1893.47"/><polygon points="45.83 470.76 22.91 489.51 16.66 449.93 45.83 470.76"/></svg>