<svg id="Calque_1" data-name="Calque 1" xmlns="http://www.w3.org/2000/svg" viewBox="0 0 3434.66 2115.71"><title>USA</title><polygon points="1655.13 2115.72 1513.87 2062.41 1364.61 1782.54 1276.65 1782.54 1236.67 1849.17 1132.71 1771.88 1127.38 1705.24 1020.77 1587.96 898.16 1577.3 898.16 1611.95 692.92 1587.96 453.04 1425.38 290.45 1401.39 279.79 1321.42 101.2 1185.49 117.2 1142.84 55.89 1012.24 85.21 980.25 47.9 953.6 57.17 898.14 75.56 918.37 68.21 885.88 79.24 880.36 68.21 863.2 59.63 888.33 35.1 861.97 37 838.42 4.62 784.08 21.97 717.03 0 656.91 49.71 575.98 56.8 447.93 168.36 203.54 193.16 201.77 166.59 185.83 186.07 161.04 171.91 143.33 191.39 139.79 178.99 12.28 281.7 63.63 303.61 86.59 299.49 43.3 308.42 33.68 293.99 0 1031.16 154.48 1796.3 204.26 1798.15 171.07 1822.12 182.13 1835.02 228.23 1890.33 244.82 1905.08 228.23 2012.02 274.32 2043.36 255.88 2052.58 268.79 2091.3 266.94 2095.48 274.39 2121.43 271.71 2040.89 316.46 1980.03 379.1 1997.93 388.05 2048.05 359.41 2055.21 372.84 2043.57 391.63 2076.68 393.42 2111.59 370.15 2147.38 358.52 2195.71 308.4 2224.35 308.4 2184.07 365.68 2202.87 354.04 2230.61 362.99 2251.19 384.47 2291.47 388.94 2318.31 364.78 2355.01 361.2 2380.96 349.57 2381.85 371.94 2432.86 364.78 2434.65 390.74 2451.66 407.74 2358.58 410.42 2314.73 425.64 2303.1 448.01 2296.84 436.38 2281.62 450.69 2272.67 438.17 2223.45 546.45 2229.72 552.72 2276.25 482.91 2276.25 507.07 2255.67 567.03 2242.24 661.9 2257.46 752.28 2295.94 788.98 2336.21 743.33 2346.05 678 2317.42 618.04 2328.16 524.97 2363.95 480.23 2363.95 516.92 2377.38 507.97 2373.8 473.07 2398.86 463.22 2383.64 450.69 2410.49 428.32 2482.08 456.06 2503.56 482.91 2490.14 482.91 2501.77 504.39 2499.98 543.77 2474.03 577.77 2482.98 601.04 2526.83 556.29 2571.23 638.05 2568.22 682.38 2556.2 670.36 2525.39 751.52 2587.01 772.56 2786.15 621.51 2765.11 586.2 2893.61 560.65 2929.68 528.33 2926.67 497.52 2909.39 483.25 2981.53 393.07 3172.4 348.73 3177.66 321.68 3194.19 319.43 3224.25 260.06 3221.24 183.41 3252.05 115.03 3269.34 134.57 3300.9 108.27 3331.71 122.54 3367.03 234.51 3391.82 235.26 3405.35 272.08 3416.62 264.57 3434.66 290.87 3384.31 343.47 3373.79 334.46 3351.24 363.76 3331.71 350.24 3331.71 391.57 3302.4 418.62 3276.85 420.12 3259.57 508.8 3267.83 522.32 3261.82 554.63 3283.61 559.89 3303.15 589.95 3333.21 579.43 3341.48 589.2 3319.68 599.72 3300.15 615.5 3293.38 604.23 3281.36 610.24 3284.36 623.77 3209.22 659.84 3164.88 671.86 3128.06 701.17 3128.06 715.45 3143.84 700.42 3174.65 698.91 3205.46 674.87 3223.5 680.13 3165.63 726.72 3108.52 738.74 3107.77 754.52 3122.8 757.53 3127.31 813.14 3099.51 867.24 3101.01 880.77 3087.48 889.79 3091.99 870.25 3061.18 864.99 3037.89 842.44 3052.91 867.24 3070.95 898.8 3095 924.35 3074.2 994.49 3061.48 1053.86 3047.91 1015.7 3062.33 981.77 3041.13 959.72 3022.47 960.57 3009.75 933.43 3010.59 894.42 3004.66 878.3 3013.99 860.49 2992.78 874.91 2992.78 929.19 3013.14 964.81 3003.81 977.53 3028.41 992.8 3037.73 1036.05 3022.47 1036.05 3041.97 1058.95 3036.04 1065.73 3007.2 1045.38 3036.89 1081 3041.04 1070.58 3059.02 1070.58 3092.09 1132.45 3072.86 1126.8 3033.26 1151.69 3088.7 1143.77 3101.14 1168.66 3080.78 1198.07 3052.49 1202.6 3052.49 1233.15 3076.25 1235.41 3067.2 1259.17 3025.34 1264.83 2984.61 1312.34 2980.08 1341.76 2939.35 1353.07 2911.07 1389.28 2902.02 1426.61 2845.45 1486.58 2830.74 1486.58 2833 1501.29 2795.67 1554.46 2784.44 1642.1 2881.93 1818 2877.69 1841.31 2943.39 1943.04 2943.39 2025.69 2934.91 2070.19 2884.05 2091.39 2852.26 2036.29 2826.83 2036.29 2792.92 1981.18 2785.65 1953.93 2779.3 1972.98 2733.26 1916.62 2753.9 1884.86 2728.49 1879.31 2739.61 1889.63 2733.26 1905.5 2718.97 1878.51 2726.91 1807.07 2703.89 1781.66 2658.64 1757.85 2609.42 1716.57 2552.26 1757.05 2524.48 1761.82 2522.09 1749.11 2441.92 1711.01 2333.16 1738 2341.89 1725.3 2325.22 1697.51 2314.9 1722.92 2226.78 1734.83 2194.24 1765.79 2215.67 1778.49 2218.05 1759.43 2234.72 1772.93 2227.58 1787.22 2212.49 1788.01 2211.7 1802.3 2245.84 1817.38 2262.51 1830.88 2252.98 1841.2 2214.88 1825.32 2196.62 1807.86 2184.71 1815.8 2181.53 1841.2 2164.86 1826.91 2132.32 1851.52 2091.83 1830.88 2103.74 1817.38 2078.34 1811.03 2068.81 1793.57 2033.88 1795.16 2045.79 1810.24 2003.71 1811.83 1952.91 1793.57 1861.62 1819.77 1682.86 1947.33 1643.18 2029.74 1655.13 2115.72"/></svg>